<svg width="48" height="48" viewBox="0 0 48 48" fill="none" xmlns="http://www.w3.org/2000/svg">
  <rect width="48" height="48" rx="8" fill="#8B5CF6"/>
  <path d="M16 16C19.3137 16 22 18.6863 22 22C22 25.3137 19.3137 28 16 28C12.6863 28 10 25.3137 10 22C10 18.6863 12.6863 16 16 16Z" fill="white"/>
  <path d="M32 20C35.3137 20 38 22.6863 38 26C38 29.3137 35.3137 32 32 32C28.6863 32 26 29.3137 26 26C26 22.6863 28.6863 20 32 20Z" fill="white" opacity="0.8"/>
  <path d="M24 12C27.3137 12 30 14.6863 30 18C30 21.3137 27.3137 24 24 24C20.6863 24 18 21.3137 18 18C18 14.6863 20.6863 12 24 12Z" fill="white" opacity="0.6"/>
</svg>